# xmcd CD database file
#
# Track frame offsets:
#	150
#	11156
#	28453
#	48577
#	61249
#	76001
#	93336
#	106770
#	121041
#	133877
#	150802
#
# Disc length: 2214 seconds
#
# Revision: 0
# Processed by: cddbd v1.5PL3 Copyright (c) Steve Scherf et al.
# Submitted via: CDex 1.50beta9
#
DISCID=7f08a40b
DTITLE=Son Geezinslaw - The Son Sessions
DYEAR=1998
DGENRE=Country
TTITLE0=If No News Is Good News
TTITLE1=The Richest Fool Alive
TTITLE2=I Never Go Around Mirrors
TTITLE3=I Should Have Called
TTITLE4=Just One More
TTITLE5=Haunted Jukebox
TTITLE6=Pride Goes Before A Fall
TTITLE7=You Could Know As Much About A Stranger
TTITLE8=The Selfishness In Man
TTITLE9=Another Pretty Country Song
TTITLE10=Song For The Life
EXTD=YEAR: 1998
EXTT0=
EXTT1=
EXTT2=
EXTT3=
EXTT4=
EXTT5=
EXTT6=
EXTT7=
EXTT8=
EXTT9=
EXTT10=
PLAYORDER=
